# xmcd CD database file
#
# Track frame offsets:
#	150
#	10540
#	22591
#	32516
#	42709
#	54442
#	68243
#	82325
#	101056
#	114927
#	131626
#	142214
#	154044
#	169405
#	182308
#	194815
#	207709
#	217365
#	234901
#	253697
#
# Disc length: 3526 seconds
#
# Revision: 4
# Processed by: cddbd v1.5.2PL0 Copyright (c) Steve Scherf et al.
# Submitted via: CDex 1.60beta1-cs1
#
DISCID=260dc414
DTITLE=Johnny Cash - The Legend of Johnny Cash Vol.II
DYEAR=2006
DGENRE=Country
TTITLE0=There You Go
TTITLE1=Home of the Blues
TTITLE2=Ballad of a Teenage Queen
TTITLE3=The Ways of a Woman in Love
TTITLE4=I Still Miss Someone
TTITLE5=Don't Take Your Guns to Town
TTITLE6=The Long Black Veil
TTITLE7=The Ballad of Ira Hayes
TTITLE8=It Ain't Me Babe (With June Carter)
TTITLE9=Girl From the North Country (With Bob Dylan)
TTITLE10=Daddy Sang Bass
TTITLE11=Flesh and Blood
TTITLE12=The Night Hank Williams Came to Town (With Waylon Jennings)
TTITLE13=That Old Wheel (With Hank Williams Jr.)
TTITLE14=The Beast in Me
TTITLE15=Unchained
TTITLE16=I Won't Back Down
TTITLE17=I Hung My Head
TTITLE18=Bird on a Wire (Live)
TTITLE19=In the Sweet By and By
EXTD=TR. YEAR: 2006
EXTT0=
EXTT1=
EXTT2=
EXTT3=
EXTT4=
EXTT5=
EXTT6=
EXTT7=
EXTT8=
EXTT9=
EXTT10=
EXTT11=
EXTT12=
EXTT13=
EXTT14=
EXTT15=
EXTT16=
EXTT17=
EXTT18=
EXTT19=
PLAYORDER=
